<?xml version="1.0" encoding="UTF-8"?>
<!DOCTYPE svg PUBLIC "-//W3C//DTD SVG 1.1//EN" "http://www.w3.org/Graphics/SVG/1.1/DTD/svg11.dtd">
<!-- Creator: CorelDRAW 2019 (64 Bit) -->
<svg xmlns="http://www.w3.org/2000/svg" xml:space="preserve" width="66.04mm" height="58.42mm" version="1.1" style="shape-rendering:geometricPrecision; text-rendering:geometricPrecision; image-rendering:optimizeQuality; fill-rule:evenodd; clip-rule:evenodd"
viewBox="0 0 6604 5842"
 xmlns:xlink="http://www.w3.org/1999/xlink">
 <defs>
  <style type="text/css">
   <![CDATA[
    .fil0 {fill:none}
    .fil2 {fill:#ffffff}
    .fil1 {fill:#ffffff}
    .fil3 {fill:#FE0000}
   ]]>
  </style>
 </defs>
 <g id="Layer_x0020_1">
  <metadata id="CorelCorpID_0Corel-Layer"/>
  <g id="_2261915037600">
   <g>
    <path class="fil0" d="M585.59 584.21c-37.42,-241.3 -12.14,-403.64 75.82,-487.01 -34.77,516.97 46.89,957.21 244.98,1320.73 228.71,441.87 367.17,679.74 415.39,713.62 300.4,240.33 470.69,396.56 629.79,506.2 116.91,80.55 269.65,-17.64 269.65,-17.64 548.33,-641.36 849.71,-988.03 904.13,-1040.03 118.72,-65.34 171.76,72.16 159.1,412.49 273.73,-271.63 424.98,-387.51 453.74,-347.67 34.81,-5.75 69.32,-2.19 72.57,31.51 7.96,82.53 -6.33,306.67 -72.57,663.83 278.47,-216.8 525.96,-197.15 742.48,58.92 130.42,-256.84 218.81,-180.23 265.17,229.82 65.89,-62.12 135.09,-66.82 155.16,7.31 24.31,89.79 42.65,295.56 74.66,617.32 212.16,8.62 379.12,-134.77 500.88,-430.17 -69.37,306.26 -228.47,465.36 -477.31,477.31 0,31.43 0,47.14 0,47.14 314.48,28.41 597.33,-4.98 848.55,-100.18 -144.82,120.71 -421.78,173.74 -830.87,159.11 47.66,406.9 477.83,689.75 1290.5,848.55 -691.88,-64.16 -1116.16,-282.19 -1272.82,-654.09 58.92,231.78 88.38,347.67 88.38,347.67 194.36,124.37 524.35,238.3 989.98,341.77 -288.4,-7.94 -614.47,-102.22 -978.19,-282.84 66.25,127.35 93.75,203.95 82.5,229.81 557.46,629.77 991.55,975.48 1302.29,1037.11 -445.67,-76.47 -891.55,-418.24 -1337.65,-1025.33 -60.31,53.04 -107.43,-56.92 -109.97,-267.09 -189.76,-81.29 -361.52,-189.93 -485.96,-354.33 -126.73,-59.96 -147.22,-98.13 -199.58,-221.23 2.74,-104.54 -32.61,-169.36 -106.07,-194.46 -41.72,-47.78 -141.89,26.86 -300.53,223.92 -186.28,137.22 -255.03,115.61 -206.25,-64.82 -168.69,123.31 -257.08,123.31 -265.17,0 -144.17,2.13 -193.28,-58.76 -147.31,-182.67 -11.79,-74.64 -17.68,-111.96 -17.68,-111.96 -260.41,205.31 -425.41,293.7 -494.99,265.17 -66.22,412.62 -134.97,620.83 -206.24,624.63 -325.05,517.43 -505.75,788.49 -542.13,813.19 -269.12,335.08 -495.01,462.76 -677.66,383.03 198.51,16.13 406.73,-119.41 624.62,-406.6 17.93,-62.65 53.29,-107.83 106.07,-135.53 283.93,-478.99 437.14,-704.88 459.63,-677.67 -39.33,-18.97 19.59,-207.54 176.78,-565.7 -205.9,126.94 -345.36,183.9 -418.38,170.89 -44.39,215.63 -105.28,333.49 -182.68,353.56 -458.98,517.55 -898.97,680.59 -1319.96,489.1 379.73,119.65 805.97,-51.24 1278.72,-512.67 82.6,-202.16 137.6,-304.3 164.99,-306.42 -244.26,79.06 -368.01,71.21 -371.24,-23.57 -312.45,85.66 -461.73,77.81 -447.85,-23.57 -231.85,56.42 -375.24,48.56 -430.16,-23.57 -158.57,10.66 -252.86,-63.98 -282.85,-223.92 131.04,35.93 213.54,39.86 247.49,11.78 67.42,9.32 90.99,-12.29 70.72,-64.82 168.31,38.14 303.84,26.35 406.59,-35.35 184.64,-117.86 259.28,-159.11 259.28,-159.11 -137.49,-90.35 -206.24,-135.53 -206.24,-135.53 -408.56,58.93 -612.85,88.39 -612.85,88.39 35.36,-55 53.04,-82.5 53.04,-82.5 274.99,-58.92 412.49,-88.38 412.49,-88.38 -412.49,-259.28 -618.74,-388.92 -618.74,-388.92 -369.82,-406.34 -540.7,-649.91 -512.66,-730.7 -127.8,-349.8 -188.69,-577.65 -182.68,-683.55 -19.65,-302.83 27.49,-483.54 141.43,-542.13 -55.25,126.79 -70.96,344.82 -47.14,654.08 119.33,359.52 172.37,552.01 159.1,577.49 287.4,431.29 454.36,651.28 500.88,659.98 416.78,270.53 636.77,413.91 659.98,430.17 291.61,-76.77 419.28,-104.27 383.03,-82.5 -450.23,-323.14 -674.15,-511.71 -671.77,-565.7 -306.59,-419.29 -459.81,-680.53 -459.63,-783.72 -161.34,-432.83 -220.27,-690.15 -176.78,-771.95z"/>
    <path class="fil1" d="M585.59 584.21c-37.42,-241.3 -12.14,-403.64 75.82,-487.01 -34.77,516.97 46.89,957.21 244.98,1320.73 228.71,441.87 367.17,679.74 415.39,713.62 300.4,240.33 470.69,396.56 629.79,506.2 116.91,80.55 269.65,-17.64 269.65,-17.64 548.33,-641.36 849.71,-988.03 904.13,-1040.03 118.72,-65.34 171.76,72.16 159.1,412.49 273.73,-271.63 424.98,-387.51 453.74,-347.67 34.81,-5.75 69.32,-2.19 72.57,31.51 7.96,82.53 -6.33,306.67 -72.57,663.83 278.47,-216.8 525.96,-197.15 742.48,58.92 130.42,-256.84 218.81,-180.23 265.17,229.82 65.89,-62.12 135.09,-66.82 155.16,7.31 24.31,89.79 42.65,295.56 74.66,617.32 212.16,8.62 379.12,-134.77 500.88,-430.17 -69.37,306.26 -228.47,465.36 -477.31,477.31 0,31.43 0,47.14 0,47.14 314.48,28.41 597.33,-4.98 848.55,-100.18 -144.82,120.71 -421.78,173.74 -830.87,159.11 47.66,406.9 477.83,689.75 1290.5,848.55 -691.88,-64.16 -1116.16,-282.19 -1272.82,-654.09 58.92,231.78 88.38,347.67 88.38,347.67 194.36,124.37 524.35,238.3 989.98,341.77 -288.4,-7.94 -614.47,-102.22 -978.19,-282.84 66.25,127.35 93.75,203.95 82.5,229.81 557.46,629.77 991.55,975.48 1302.29,1037.11 -445.67,-76.47 -891.55,-418.24 -1337.65,-1025.33 -60.31,53.04 -107.43,-56.92 -109.97,-267.09 -189.76,-81.29 -361.52,-189.93 -485.96,-354.33 -126.73,-59.96 -147.22,-98.13 -199.58,-221.23 2.74,-104.54 -32.61,-169.36 -106.07,-194.46 -41.72,-47.78 -141.89,26.86 -300.53,223.92 -186.28,137.22 -255.03,115.61 -206.25,-64.82 -168.69,123.31 -257.08,123.31 -265.17,0 -144.17,2.13 -193.28,-58.76 -147.31,-182.67 -11.79,-74.64 -17.68,-111.96 -17.68,-111.96 -260.41,205.31 -425.41,293.7 -494.99,265.17 -66.22,412.62 -134.97,620.83 -206.24,624.63 -325.05,517.43 -505.75,788.49 -542.13,813.19 -269.12,335.08 -495.01,462.76 -677.66,383.03 198.51,16.13 406.73,-119.41 624.62,-406.6 17.93,-62.65 53.29,-107.83 106.07,-135.53 283.93,-478.99 437.14,-704.88 459.63,-677.67 -39.33,-18.97 19.59,-207.54 176.78,-565.7 -205.9,126.94 -345.36,183.9 -418.38,170.89 -44.39,215.63 -105.28,333.49 -182.68,353.56 -458.98,517.55 -898.97,680.59 -1319.96,489.1 379.73,119.65 805.97,-51.24 1278.72,-512.67 82.6,-202.16 137.6,-304.3 164.99,-306.42 -244.26,79.06 -368.01,71.21 -371.24,-23.57 -312.45,85.66 -461.73,77.81 -447.85,-23.57 -231.85,56.42 -375.24,48.56 -430.16,-23.57 -158.57,10.66 -252.86,-63.98 -282.85,-223.92 131.04,35.93 213.54,39.86 247.49,11.78 67.42,9.32 90.99,-12.29 70.72,-64.82 168.31,38.14 303.84,26.35 406.59,-35.35 184.64,-117.86 259.28,-159.11 259.28,-159.11 -137.49,-90.35 -206.24,-135.53 -206.24,-135.53 -408.56,58.93 -612.85,88.39 -612.85,88.39 35.36,-55 53.04,-82.5 53.04,-82.5 274.99,-58.92 412.49,-88.38 412.49,-88.38 -412.49,-259.28 -618.74,-388.92 -618.74,-388.92 -369.82,-406.34 -540.7,-649.91 -512.66,-730.7 -127.8,-349.8 -188.69,-577.65 -182.68,-683.55 -19.65,-302.83 27.49,-483.54 141.43,-542.13 -55.25,126.79 -70.96,344.82 -47.14,654.08 119.33,359.52 172.37,552.01 159.1,577.49 287.4,431.29 454.36,651.28 500.88,659.98 416.78,270.53 636.77,413.91 659.98,430.17 291.61,-76.77 419.28,-104.27 383.03,-82.5 -450.23,-323.14 -674.15,-511.71 -671.77,-565.7 -306.59,-419.29 -459.81,-680.53 -459.63,-783.72 -161.34,-432.83 -220.27,-690.15 -176.78,-771.95z"/>
    <path class="fil0" d="M1823.86 2965.52c-117.08,-95.5 -174.23,-129.79 -171.46,-102.88 0,0 121.45,-15.71 364.36,-47.15 -128.6,100.02 -192.9,150.03 -192.9,150.03z"/>
    <path class="fil0" d="M1823.86 2965.52c-117.08,-95.5 -174.23,-129.79 -171.46,-102.88 0,0 121.45,-15.71 364.36,-47.15 -128.6,100.02 -192.9,150.03 -192.9,150.03z"/>
    <path class="fil0" d="M2205.36 2815.49c-29.63,-15.05 -42.49,-25.06 -38.58,-30 137.17,-40.01 205.76,-60.01 205.76,-60.01 -111.45,60.01 -167.18,90.01 -167.18,90.01z"/>
    <path class="fil2" d="M2205.36 2815.49c-29.63,-15.05 -42.49,-25.06 -38.58,-30 137.17,-40.01 205.76,-60.01 205.76,-60.01 -111.45,60.01 -167.18,90.01 -167.18,90.01z"/>
    <path class="fil0" d="M2758.32 2399.7c82.24,-354.52 186.55,-428.82 291.49,-210.04 110.13,-96.95 161.57,-148.39 154.31,-154.32 -33.37,-243.86 -57.66,-368.17 -72.87,-372.92 -531.53,614.4 -797.29,921.6 -797.29,921.6 191.46,-22.86 287.19,-34.29 287.19,-34.29 83.43,-80.13 129.15,-130.14 137.17,-150.03z"/>
    <path class="fil2" d="M2758.32 2399.7c82.24,-354.52 186.55,-428.82 291.49,-210.04 110.13,-96.95 161.57,-148.39 154.31,-154.32 -33.37,-243.86 -57.66,-368.17 -72.87,-372.92 -531.53,614.4 -797.29,921.6 -797.29,921.6 191.46,-22.86 287.19,-34.29 287.19,-34.29 83.43,-80.13 129.15,-130.14 137.17,-150.03z"/>
    <path class="fil0" d="M2985.51 2253.96c-52.31,-153.93 -100.89,-119.63 -145.74,102.87 97.16,-68.58 145.74,-102.87 145.74,-102.87z"/>
    <path class="fil0" d="M3105.53 2468.28c95.32,12.57 142.47,8.28 141.46,-12.86 -25.31,-191.33 -62.46,-255.63 -111.45,-192.89 -20.01,137.17 -30.01,205.75 -30.01,205.75z"/>
    <path class="fil2" d="M3105.53 2468.28c95.32,12.57 142.47,8.28 141.46,-12.86 -25.31,-191.33 -62.46,-255.63 -111.45,-192.89 -20.01,137.17 -30.01,205.75 -30.01,205.75z"/>
    <path class="fil0" d="M3675.64 1722.43c-23.42,415.68 -54.85,635.72 -94.3,660.12 -137.17,25.72 -205.76,38.58 -205.76,38.58 -28.57,-240.04 -42.86,-360.07 -42.86,-360.07 228.61,-225.75 342.92,-338.63 342.92,-338.63z"/>
    <path class="fil2" d="M3675.64 1722.43c-23.42,415.68 -54.85,635.72 -94.3,660.12 -137.17,25.72 -205.76,38.58 -205.76,38.58 -28.57,-240.04 -42.86,-360.07 -42.86,-360.07 228.61,-225.75 342.92,-338.63 342.92,-338.63z"/>
    <path class="fil2" d="M4638.11 2692.36c-36.53,-125.75 -66.87,-205.26 -91.01,-238.54 83.05,-143.1 131.18,-92.88 144.37,150.66 -35.57,58.58 -53.36,87.88 -53.36,87.88z"/>
    <path class="fil2" d="M4638.11 2692.36c-36.53,-125.75 -66.87,-205.26 -91.01,-238.54 83.05,-143.1 131.18,-92.88 144.37,150.66 -35.57,58.58 -53.36,87.88 -53.36,87.88z"/>
    <path class="fil2" d="M4933.14 3229.06c-90.57,-401.24 -31.99,-595.84 -144.37,-489.62 68.2,352.09 116.33,515.3 144.37,489.62z"/>
    <path class="fil2" d="M4933.14 3229.06c-90.57,-401.24 -31.99,-595.84 -144.37,-489.62 68.2,352.09 116.33,515.3 144.37,489.62z"/>
    <path class="fil2" d="M4741.69 2764.55c-54.4,41.85 -81.6,62.77 -81.6,62.77 -2.15,126.05 -39.81,188.82 -112.99,188.32 141.22,57.93 203.99,110.24 188.31,156.93 38.33,82.67 51.93,133.93 40.8,153.79 76.12,-17.4 114.83,-34.14 103.58,-50.22 -112.89,-310.25 -122.31,-461.95 -138.1,-511.59z"/>
    <path class="fil2" d="M5049.27 3907c-66.31,-271.68 -105.02,-436.98 -116.13,-495.9 -58.76,-4.82 -94.33,-4.82 -106.71,0 -21.47,39.67 -49.72,32.35 -84.74,-21.97 6.27,48.13 9.41,72.19 9.41,72.19 50.35,55.13 46.17,103.26 -12.55,144.38 171.46,95.76 234.23,173.18 188.32,232.25 87.67,58.75 128.47,81.76 122.4,69.05z"/>
    <path class="fil0" d="M3331.22 2638.14c66.62,118.15 90.84,177.76 72.65,178.84 -271.79,149.41 -404.05,173.63 -396.8,72.66 44.71,-204.93 67.07,-307.39 67.07,-307.39 170.57,-60.88 256.27,-42.25 257.08,55.89z"/>
    <path class="fil0" d="M3331.22 2638.14c66.62,118.15 90.84,177.76 72.65,178.84 -271.79,149.41 -404.05,173.63 -396.8,72.66 44.71,-204.93 67.07,-307.39 67.07,-307.39 170.57,-60.88 256.27,-42.25 257.08,55.89z"/>
    <path class="fil1" d="M2800.29 2610.2c115.5,-18.63 173.25,-27.95 173.25,-27.95 -55.89,223.55 -83.83,335.33 -83.83,335.33 -158.23,138.69 -255.11,155.46 -290.62,50.3 -114.85,144.69 -213.59,178.22 -296.2,100.6 -208.56,176.29 -338.97,204.23 -391.22,83.83 -22.76,183.19 -136.39,252.12 -340.91,206.78 -201.4,81.7 -339.26,59.34 -413.57,-67.06 159.78,7.23 260.39,-5.81 301.79,-39.12 219.83,-130.41 329.74,-195.61 329.74,-195.61 152.76,-122.95 229.14,-184.43 229.14,-184.43 172.3,109.8 328.78,89.3 469.45,-61.48 70.8,-70.79 106.19,-106.18 106.19,-106.18 136.76,-83.3 205.69,-114.97 206.79,-95.01z"/>
    <path class="fil1" d="M2800.29 2610.2c115.5,-18.63 173.25,-27.95 173.25,-27.95 -55.89,223.55 -83.83,335.33 -83.83,335.33 -158.23,138.69 -255.11,155.46 -290.62,50.3 -114.85,144.69 -213.59,178.22 -296.2,100.6 -208.56,176.29 -338.97,204.23 -391.22,83.83 -22.76,183.19 -136.39,252.12 -340.91,206.78 -201.4,81.7 -339.26,59.34 -413.57,-67.06 159.78,7.23 260.39,-5.81 301.79,-39.12 219.83,-130.41 329.74,-195.61 329.74,-195.61 152.76,-122.95 229.14,-184.43 229.14,-184.43 172.3,109.8 328.78,89.3 469.45,-61.48 70.8,-70.79 106.19,-106.18 106.19,-106.18 136.76,-83.3 205.69,-114.97 206.79,-95.01z"/>
    <path class="fil3" d="M3398.28 2995.82c28.1,-91.23 18.79,-152.71 -27.94,-184.43 -249.63,59.62 -374.45,89.42 -374.45,89.42 -85.69,279.44 -128.54,419.16 -128.54,419.16 153.25,-57.25 330.23,-165.3 530.93,-324.15z"/>
    <path class="fil3" d="M3398.28 2995.82c28.1,-91.23 18.79,-152.71 -27.94,-184.43 -249.63,59.62 -374.45,89.42 -374.45,89.42 -85.69,279.44 -128.54,419.16 -128.54,419.16 153.25,-57.25 330.23,-165.3 530.93,-324.15z"/>
    <path class="fil3" d="M2744.4 3347.92c127.71,-337.76 172.42,-486.79 134.13,-447.11 -147.04,82.92 -232.73,95.97 -257.08,39.13 -159.08,116.5 -261.54,146.3 -307.39,89.42 -171.95,150.99 -287.46,201.29 -346.5,150.89 -159.06,131.98 -274.56,167.37 -346.5,106.19 -184.34,103.86 -307.29,131.81 -368.86,83.83 39.97,92.32 131.26,127.71 273.85,106.19 43.09,86.56 201.44,95.88 475.04,27.94 22.15,92.58 163.73,79.54 424.75,-39.12 212.37,-78.24 318.56,-117.36 318.56,-117.36z"/>
    <path class="fil3" d="M2744.4 3347.92c127.71,-337.76 172.42,-486.79 134.13,-447.11 -147.04,82.92 -232.73,95.97 -257.08,39.13 -159.08,116.5 -261.54,146.3 -307.39,89.42 -171.95,150.99 -287.46,201.29 -346.5,150.89 -159.06,131.98 -274.56,167.37 -346.5,106.19 -184.34,103.86 -307.29,131.81 -368.86,83.83 39.97,92.32 131.26,127.71 273.85,106.19 43.09,86.56 201.44,95.88 475.04,27.94 22.15,92.58 163.73,79.54 424.75,-39.12 212.37,-78.24 318.56,-117.36 318.56,-117.36z"/>
    <path class="fil2" d="M4098.57 2887c-27.36,53.91 -31.3,68.35 -11.81,43.31 35.68,82.95 38.31,106.58 7.88,70.89 -40.42,46.24 -71.93,35.73 -94.52,-31.5 -47.47,-12.33 -56.66,-55.65 -27.57,-129.96 99.34,-70.95 141.35,-55.19 126.02,47.26z"/>
    <path class="fil2" d="M4291.55 2701.9c-24.31,-113.52 -78.13,-159.46 -161.47,-137.84 36.28,105.47 90.1,151.42 161.47,137.84z"/>
    <path class="fil2" d="M4508.15 2713.71c-63.44,-114.34 -91.01,-221.99 -82.7,-322.93 -39.02,240.53 -18.02,362.61 63.01,366.26 13.12,-28.88 19.69,-43.33 19.69,-43.33z"/>
   </g>
  </g>
  <rect class="fil0" x="-4678.66" y="-3838.03" width="15802.57" height="13412.25"/>
 </g>
</svg>
